# xmcd
#
# Track frame offsets: 
#        150
#        1230
#        18498
#        41175
#        63293
#        83965
#        106763
#        125251
#        144879
#
# Disc length: 2148 seconds
#
# Revision: 0
# Processed by: cddbd v1.5.2PL0 Copyright (c) Steve Scherf et al.
# Submitted via: ExactAudioCopy v1.1
#
DISCID=68086209
DTITLE=Swamp Dogg - I'm Not Selling Out I'm Buying In
DYEAR=1981
DGENRE=Soul
TTITLE0=Swamping Salutations
TTITLE1=Wine, Women And Rock 'n' Roll
TTITLE2=Just A Little Time Left
TTITLE3=The Love We Had Ain't Worth Two Dead Flies
TTITLE4=Low Friends In High Places
TTITLE5=A Hundred And...
TTITLE6=Total Destruction To Your Mind Once Again
TTITLE7=California Is Drowning And I Live By The River
TTITLE8=Sexy Sexy Sexy #3
EXTD=
EXTT0=
EXTT1=
EXTT2=
EXTT3=
EXTT4=
EXTT5=
EXTT6=
EXTT7=
EXTT8=
PLAYORDER=
